# xmcd
#
# Track frame offsets:
#	150
#	17980
#	36502
#	51147
#	71605
#	87072
#	103820
#	120715
#	135985
#	157662
#	172335
#	190850
#
# Disc length: 2781 seconds
#
# Revision: 0
# Processed by: cddbd v1.5.2PL0 Copyright (c) Steve Scherf et al.
# Submitted via: EZCDAudioConverter 2.2.0.1
#
DISCID=a00adb0c
DTITLE=varios -  coisas do coração
DYEAR=1996
DGENRE=sertanejos
TTITLE0=leandro and leonardo - cheiro da maçã
TTITLE1=giliard - voçê só pensa em você
TTITLE2=roberta miranda - duas taças
TTITLE3=leonardo - evidencias
TTITLE4=cezar and paulinho - o meu jeito de amar
TTITLE5=beto douglas - a milhonaria da mansão
TTITLE6=beto barbosa - hoje eu quero amar voçê
TTITLE7=gian and geovani - voçê em minha vida
TTITLE8=tim maia - amiga
TTITLE9=dalvan - agora ou nunca
TTITLE10=placa luminosa - diga isso pro meu coraçâo
TTITLE11=matogrosso and mathias - na hora do adeus
EXTD=
EXTT0=
EXTT1=
EXTT2=
EXTT3=
EXTT4=
EXTT5=
EXTT6=
EXTT7=
EXTT8=
EXTT9=
EXTT10=
EXTT11=
PLAYORDER=
